<?xml version="1.0" standalone="no"?>
<!DOCTYPE svg PUBLIC "-//W3C//DTD SVG 20010904//EN"
 "http://www.w3.org/TR/2001/REC-SVG-20010904/DTD/svg10.dtd">
<svg version="1.0" xmlns="http://www.w3.org/2000/svg"
 width="318.000000pt" height="185.000000pt" viewBox="0 0 318.000000 185.000000"
 preserveAspectRatio="xMidYMid meet">

<g transform="translate(0.000000,185.000000) scale(0.100000,-0.100000)"
fill="#000000" stroke="none">
<path d="M2702 1416 c3 -231 4 -246 24 -273 33 -45 79 -65 155 -71 l69 -5 0
52 0 51 -53 0 c-31 0 -61 6 -75 16 -21 14 -22 22 -22 150 l0 134 75 0 75 0 0
45 0 45 -75 0 -75 0 0 50 0 50 -50 0 -51 0 3 -244z"/>
<path d="M324 1536 c-118 -55 -167 -199 -110 -321 59 -127 211 -177 334 -110
30 16 63 42 74 58 23 32 23 32 -36 63 -26 15 -29 14 -42 -4 -20 -30 -96 -56
-138 -48 -69 13 -116 73 -116 148 0 59 30 105 85 129 56 25 104 18 151 -23
l33 -29 40 21 c23 11 41 24 41 28 0 16 -76 82 -112 97 -56 23 -143 19 -204 -9z"/>
<path d="M793 1539 c-154 -76 -183 -286 -56 -400 47 -42 100 -63 163 -63 95 0
185 58 223 143 23 52 25 142 4 192 -21 51 -71 104 -121 128 -58 29 -156 29
-213 0z m149 -79 c73 -21 122 -112 98 -185 -14 -43 -70 -92 -114 -100 -70 -14
-155 43 -171 113 -14 68 35 152 101 172 39 11 44 11 86 0z"/>
<path d="M1315 1543 c-44 -23 -84 -63 -108 -108 -19 -36 -21 -57 -22 -200 l0
-160 47 -3 47 -3 3 160 3 160 30 31 c44 45 93 57 141 34 21 -11 49 -34 61 -53
21 -31 23 -45 23 -182 l0 -149 45 0 45 0 0 163 c0 136 -3 168 -19 202 -23 49
-64 89 -113 109 -48 20 -144 20 -183 -1z"/>
<path d="M1815 1542 c-50 -24 -109 -88 -126 -138 -18 -55 -16 -142 6 -184 49
-98 123 -141 251 -148 l91 -5 26 46 c15 25 27 48 27 51 0 3 -43 6 -95 6 -110
0 -148 12 -189 61 l-29 34 193 3 192 2 -4 70 c-4 81 -35 134 -107 185 -37 26
-53 30 -119 33 -59 2 -86 -2 -117 -16z m147 -82 c21 -6 50 -26 69 -48 l33 -37
-72 -3 c-40 -2 -104 -2 -144 0 l-72 3 33 37 c28 33 68 54 106 57 6 1 27 -4 47
-9z"/>
<path d="M2345 1541 c-90 -40 -155 -160 -140 -254 23 -137 158 -235 286 -208
67 15 100 33 138 77 l33 36 -42 25 -41 25 -34 -31 c-64 -56 -147 -50 -204 14
-52 60 -52 130 1 191 33 37 91 58 135 48 15 -3 45 -20 66 -36 l37 -29 41 24
41 25 -32 35 c-17 20 -50 45 -74 56 -55 27 -155 28 -211 2z"/>
<path d="M573 790 c0 -47 2 -66 4 -42 2 23 2 61 0 85 -2 23 -4 4 -4 -43z"/>
<path d="M770 792 c0 -48 4 -82 10 -82 6 0 10 27 10 61 l0 62 60 -64 59 -64 1
83 c0 48 -4 82 -10 82 -6 0 -10 -26 -10 -57 l0 -57 -60 59 -60 59 0 -82z"/>
<path d="M1098 863 c20 -4 22 -10 22 -79 0 -43 4 -74 10 -74 6 0 10 30 10 70
0 64 2 72 23 80 17 7 9 9 -33 8 -30 0 -45 -3 -32 -5z"/>
<path d="M1360 790 l0 -80 40 0 c22 0 40 5 40 10 0 6 -16 10 -35 10 -32 0 -35
2 -35 30 0 28 3 30 35 30 19 0 35 5 35 10 0 6 -16 10 -36 10 -31 0 -35 3 -32
23 2 16 12 24 38 28 l35 6 -42 2 -43 1 0 -80z"/>
<path d="M1620 796 c0 -41 5 -78 10 -81 6 -4 10 9 10 32 l1 38 32 -38 c38 -44
57 -50 28 -8 -26 36 -26 36 -1 61 11 11 20 24 20 29 0 20 -33 41 -66 41 l-34
0 0 -74z m69 50 c17 -20 3 -46 -25 -46 -20 0 -24 5 -24 30 0 23 5 30 19 30 10
0 24 -6 30 -14z"/>
<path d="M1900 792 c0 -48 4 -82 10 -82 6 0 10 27 10 61 l0 62 60 -64 59 -64
1 83 c0 48 -4 82 -10 82 -6 0 -10 -26 -10 -57 l0 -57 -60 59 -60 59 0 -82z"/>
<path d="M2220 790 l0 -80 45 0 c25 0 45 5 45 10 0 6 -16 10 -35 10 -32 0 -35
2 -35 30 0 28 3 30 35 30 19 0 35 5 35 10 0 6 -16 10 -36 10 -31 0 -35 3 -32
23 2 16 12 24 38 28 33 6 32 6 -12 8 l-48 1 0 -80z"/>
<path d="M2498 860 c20 -8 22 -17 24 -82 l2 -73 5 74 c5 62 9 75 26 82 14 5 4
8 -30 8 -40 0 -45 -2 -27 -9z"/>
<path d="M1161 370 c-13 -34 -20 -64 -17 -67 3 -3 8 2 12 11 8 21 62 22 70 1
4 -8 10 -15 15 -15 12 0 -33 123 -47 127 -6 2 -21 -24 -33 -57z m52 -22 c-6
-11 -43 -10 -43 1 0 5 5 22 11 38 l11 28 13 -30 c7 -16 11 -33 8 -37z"/>
<path d="M1287 411 c-6 -23 0 -31 36 -54 23 -15 26 -21 17 -32 -9 -11 -17 -12
-30 -5 -27 14 -34 12 -20 -5 16 -19 44 -19 60 0 16 20 6 43 -25 57 -26 12 -33
32 -15 43 6 4 17 1 25 -5 12 -10 15 -9 15 4 0 24 -56 22 -63 -3z"/>
<path d="M1407 423 c-4 -3 -7 -13 -7 -22 1 -14 2 -13 11 2 5 9 17 17 24 17 23
0 18 -40 -10 -76 -14 -18 -25 -35 -25 -38 0 -3 17 -5 38 -5 23 1 28 3 15 6
-28 5 -28 7 -2 49 25 41 18 74 -15 74 -12 0 -26 -3 -29 -7z"/>
<path d="M1521 396 c-12 -18 -21 -42 -21 -53 0 -39 45 -58 70 -28 18 21 4 65
-20 65 -24 0 -25 8 -3 32 9 10 11 18 5 18 -6 0 -20 -15 -31 -34z m37 -52 c4
-25 -22 -38 -37 -20 -15 18 -3 48 18 44 9 -2 17 -13 19 -24z"/>
<path d="M1618 400 c-4 -23 -1 -30 13 -30 9 0 22 -6 28 -14 16 -20 -11 -46
-41 -39 -19 4 -20 3 -8 -6 37 -26 77 0 66 44 -4 16 -13 25 -26 25 -33 0 -26
38 8 43 26 4 26 4 -4 6 -28 1 -32 -3 -36 -29z"/>
<path d="M1722 418 c-7 -7 -12 -28 -12 -48 0 -76 57 -97 74 -28 16 64 -25 113
-62 76z m43 -49 c0 -33 -4 -45 -17 -47 -21 -4 -34 49 -18 78 18 33 35 18 35
-31z"/>
<path d="M1839 407 c-36 -49 -31 -107 9 -107 42 0 60 67 22 77 -23 6 -26 23
-8 41 7 7 8 12 3 12 -6 0 -17 -11 -26 -23z m35 -53 c8 -21 -11 -45 -30 -37
-14 5 -19 34 -7 46 12 12 31 7 37 -9z"/>
<path d="M1940 401 c-35 -50 -12 -116 34 -98 24 10 22 67 -4 74 -23 6 -25 14
-8 31 6 6 9 14 6 17 -3 4 -16 -8 -28 -24z m38 -57 c2 -12 -4 -24 -12 -27 -19
-7 -40 18 -32 39 8 22 40 13 44 -12z"/>
</g>
</svg>
